<svg xmlns="http://www.w3.org/2000/svg" viewBox="0 0 100 100">
  <defs>
    <linearGradient id="brainGrad" x1="0%" y1="0%" x2="100%" y2="100%">
      <stop offset="0%" style="stop-color:#2563eb"/>
      <stop offset="100%" style="stop-color:#7c3aed"/>
    </linearGradient>
  </defs>
  <circle cx="50" cy="50" r="45" fill="#f8fafc" stroke="#e2e8f0" stroke-width="2"/>
  <path d="M50 20 C30 20 25 35 25 45 C25 55 30 60 35 62 C32 65 30 70 32 75 C35 82 45 85 50 80 C55 85 65 82 68 75 C70 70 68 65 65 62 C70 60 75 55 75 45 C75 35 70 20 50 20" fill="url(#brainGrad)"/>
  <path d="M50 25 C50 25 50 75 50 75" stroke="#f8fafc" stroke-width="2" stroke-linecap="round" opacity="0.6"/>
  <path d="M35 35 C40 38 45 35 50 38 C55 35 60 38 65 35" stroke="#f8fafc" stroke-width="2" stroke-linecap="round" fill="none" opacity="0.6"/>
  <path d="M35 50 C40 53 45 50 50 53 C55 50 60 53 65 50" stroke="#f8fafc" stroke-width="2" stroke-linecap="round" fill="none" opacity="0.6"/>
  <path d="M38 65 C43 68 47 65 50 68 C53 65 57 68 62 65" stroke="#f8fafc" stroke-width="2" stroke-linecap="round" fill="none" opacity="0.6"/>
  <circle cx="35" cy="40" r="3" fill="#f8fafc" opacity="0.8"/>
  <circle cx="65" cy="40" r="3" fill="#f8fafc" opacity="0.8"/>
  <circle cx="40" cy="55" r="2" fill="#f8fafc" opacity="0.6"/>
  <circle cx="60" cy="55" r="2" fill="#f8fafc" opacity="0.6"/>
</svg>
